
<!-- Generator: Adobe Illustrator 24.0.0, SVG Export Plug-In . SVG Version: 6.00 Build 0)  -->
<svg version="1.1" id="Layer_1" xmlns="http://www.w3.org/2000/svg" xmlns:xlink="http://www.w3.org/1999/xlink" 
    viewBox="0 0 1080 1080" width="100%" height="100%" preserveAspectRatio="xMidYMid meet" style="display: block;">
<style type="text/css">
	.st0{clip-path:url(#XMLID_4_);fill:#FFFFFF;}
	.st1{clip-path:url(#XMLID_4_);}
	.st2{fill:#FFFFFF;}
	.st3{fill:url(#SVGID_1_);}
	.st4{fill:url(#SVGID_2_);}
	.st5{fill:url(#SVGID_3_);}
	.st6{fill:url(#SVGID_4_);}
	.st7{fill:url(#SVGID_5_);}
	.st8{fill:url(#SVGID_6_);}
	.st9{fill:none;stroke:#000000;stroke-width:2;stroke-miterlimit:10;}
</style>
<image style="display:none;overflow:visible;" width="full" height="full" xlink:href="C:\Users\Eng Elham\Downloads\IMG-20241115-WA0029.png"  transform="matrix(0.5 0 0 0.5 224 177.8333)">
</image>
<g>
	<g>
		<defs>
			<circle id="XMLID_1_" cx="532.8" cy="467.7" r="144.9"/>
		</defs>
		<linearGradient id="XMLID_3_" gradientUnits="userSpaceOnUse" x1="646.2375" y1="326.5945" x2="381.223" y2="656.1638">
			<stop  offset="7.076340e-02" style="stop-color:#CF5FF1"/>
			<stop  offset="0.1075" style="stop-color:#C95BEC"/>
			<stop  offset="0.1554" style="stop-color:#B951E0"/>
			<stop  offset="0.2095" style="stop-color:#9E41CA"/>
			<stop  offset="0.2677" style="stop-color:#7929AD"/>
			<stop  offset="0.2799" style="stop-color:#7024A6"/>
			<stop  offset="0.339" style="stop-color:#60238A"/>
			<stop  offset="0.3784" style="stop-color:#58227D"/>
			<stop  offset="0.4554" style="stop-color:#40195B"/>
			<stop  offset="0.5471" style="stop-color:#29103A"/>
			<stop  offset="0.6417" style="stop-color:#170921"/>
			<stop  offset="0.7391" style="stop-color:#0A040E"/>
			<stop  offset="0.841" style="stop-color:#020104"/>
			<stop  offset="0.9548" style="stop-color:#000000"/>
		</linearGradient>
		<use xlink:href="#XMLID_1_"  style="overflow:visible;fill:url(#XMLID_3_);"/>
		<clipPath id="XMLID_4_">
			<use xlink:href="#XMLID_1_"  style="overflow:visible;"/>
		</clipPath>
		<path class="st0" d="M600.6,475.1c-14.7-1.7-29.2-5.9-43.2-11.2c-20.9-7.9-40.8-18.1-61.7-25.9c-20.9-7.8-43.2-13.2-65.4-10.9
			c3.4-0.4,7.7-3.3,11.2-4.2c4.2-1,8.5-1.5,12.9-1.5c8.4,0.1,16.7,1.7,24.9,3.4c16.8,3.5,32.8,9.9,48.3,17.1
			c22.5,10.5,44.7,21.8,69.7,25.7c33,5.1,59.5-4.9,78.9-32.8c7-10,5.8-20.3,3.7-31.6c-0.8,0.9-1.3,1.3-1.6,1.8
			c-0.5,0.8-0.9,1.6-1.2,2.5c-9.5,24.2-28.1,37.5-52.8,42.4c-32.2,6.3-60.7-7.2-89.8-18.7c-30.1-11.9-64.3-23.1-96.6-13.4
			c-4.2,1.3-8.3,2.9-12.2,4.8c-23.9,11.7-41.5,38-40.4,65c-0.6-13.9,10.8-29,21.3-36.8c14.2-10.4,33-12.5,50-10.4
			c22.1,2.8,42.9,11.7,63,21.3c20.1,9.6,40,20,61.4,26.2c21.4,6.1,44.9,7.7,65.6-0.4c18-7.1,33.9-23.8,33-43.1
			c-12.2,18.7-34.5,29.1-56.7,31.1C615.4,476.2,608,476,600.6,475.1z"/>
		<g class="st1">
			<path class="st2" d="M430.7,460c5.1-3.2,10.8-5.4,16.7-6.5c5.9-1.1,12-1.3,18-0.7c12,1.1,23.6,4.7,34.5,9.7
				c5.5,2.5,10.8,5.3,16,8.2c2.6,1.5,5.2,3,7.8,4.5c2.6,1.5,5.1,3.1,7.8,4.5c10.5,5.7,21.8,9.7,33.2,13.3c2.8,0.9,5.7,1.8,8.6,2.6
				c2.9,0.8,5.8,1.6,8.7,2.2c5.8,1.3,11.7,2.3,17.7,2.9c5.9,0.6,11.9,0.8,17.9,0.6c6-0.3,11.9-1,17.8-2.2c5.8-1.2,11.6-3.1,17.1-5.3
				c5.6-2.2,10.7-5.3,15.3-9.1c4.5-3.9,8.6-8.5,10.9-14c1.1-2.8,1.8-5.7,1.5-8.7c-0.2-3-1.2-5.9-2.8-8.4c1.6,2.5,2.7,5.4,3,8.4
				c0.3,3-0.3,6-1.4,8.8c-2.3,5.6-6.3,10.3-10.8,14.3c-4.5,3.9-9.8,7.1-15.4,9.3c-5.5,2.3-11.3,4.2-17.2,5.4
				c-5.9,1.2-11.9,2-17.9,2.3c-6,0.3-12,0.1-18-0.5c-6-0.5-11.9-1.5-17.8-2.8c-2.9-0.6-5.8-1.4-8.8-2.1c-2.9-0.8-5.8-1.7-8.6-2.6
				c-11.4-3.7-22.8-7.8-33.3-13.6c-2.6-1.4-5.2-3-7.8-4.6c-2.6-1.5-5.2-3-7.8-4.5c-5.2-3-10.5-5.7-15.9-8.2
				c-10.8-5-22.4-8.6-34.3-9.8c-5.9-0.6-12-0.5-17.9,0.5C441.5,454.8,435.8,456.9,430.7,460z"/>
		</g>
		<g class="st1">
			<path class="st2" d="M385.2,448.1l-6.9-4.3c1.5-2.7,36-64.3,93-71.9c2.3-0.3,4.4,1.4,4.5,3.9l0,0c0.2,2.2-1.3,4.3-3.4,4.5
				C419.3,387.4,385.5,447.5,385.2,448.1z"/>
		</g>
		<path class="st0" d="M459,385.7c7.2,6.1,17.4,8.1,26.6,6c9.2-2,17.3-7.8,23.1-15.2c3.1-3.9,5.6-8.4,9.1-11.9
			c3.5-3.5,8.5-6.2,13.4-5.3c-6-2.5-20.7-7.5-39.3-4.4c-18.9,3.1-31.3,12.8-36.2,17.1c3.8-2.2,10.8-5.4,20.1-6.3
			c8.5-0.8,15.4,0.7,19.4,2c-5.3,0-10,3.3-13.9,7c-5.1,4.7-7,7.6-12.3,10.1c-4.7,2.2-9.3,2.2-12.3,1.9c2.3,0.9,4.6,1.7,6.9,2.6
			L459,385.7z"/>
		<g class="st1">
			<g>
				<path class="st2" d="M404.4,583.6l-3.7-1.8c6-12.4,20.2-35.4,47.9-49.2c12.9-6.4,26.8-10,41.4-10.7c1.2-0.1,2.1,0.9,2.2,2l0,0
					c0,1.1-0.9,2.1-2,2.1c-14,0.7-27.4,4.1-39.7,10.3C423.7,549.6,410.1,571.6,404.4,583.6z"/>
			</g>
			<path class="st2" d="M474,533.3c5.3,5,13.1,7,20.4,5.8c7.2-1.2,13.8-5.3,18.6-10.8c2.6-2.9,4.7-6.3,7.6-8.9
				c2.9-2.6,6.9-4.4,10.7-3.5c-4.6-2.2-15.7-6.7-30.3-5.1c-14.8,1.6-24.9,8.6-28.9,11.7c3.1-1.5,8.6-3.8,15.9-4
				c6.6-0.3,11.9,1.2,15,2.4c-4.1-0.2-8,2.2-11.1,4.8c-4.1,3.4-5.8,5.6-10,7.3c-3.7,1.5-7.3,1.3-9.6,0.9c1.8,0.8,3.5,1.6,5.3,2.3
				L474,533.3z"/>
			<g>
				<g>
					<path class="st2" d="M400.7,582.4l-4.1,0.2c-0.5-10.9,0-48.6,28.7-76.2c10.5-10.1,23.6-17.6,38-21.9c1.1-0.3,2.3,0.3,2.6,1.5
						l0,0c0.3,1.1-0.3,2.2-1.4,2.5c-13.8,4.1-26.3,11.3-36.3,20.9C400.8,535.8,400.2,572,400.7,582.4z"/>
				</g>
				<path class="st2" d="M451.8,496.7c5.1,3.8,12.1,4.6,18.2,2.8c6.1-1.8,11.3-6.1,14.9-11.4c1.9-2.8,3.4-5.9,5.6-8.5
					c2.2-2.6,5.4-4.6,8.8-4.2c-4.2-1.4-14.3-4.1-26.7-1.1c-12.6,3-20.5,10.2-23.6,13.3c2.5-1.6,7-4.2,13.3-5.2
					c5.7-0.9,10.4-0.2,13.2,0.4c-3.6,0.3-6.6,2.7-9.1,5.4c-3.2,3.4-4.4,5.5-7.8,7.4c-3.1,1.7-6.2,1.9-8.2,1.9c1.6,0.5,3.2,1,4.8,1.4
					L451.8,496.7z"/>
			</g>
		</g>
		<circle class="st0" cx="452.6" cy="566.2" r="13.4"/>
	</g>
</g>
<g>
	<linearGradient id="SVGID_1_" gradientUnits="userSpaceOnUse" x1="891.9052" y1="658.8619" x2="62.4959" y2="672.8669">
		<stop  offset="7.076340e-02" style="stop-color:#CF5FF1"/>
		<stop  offset="0.1075" style="stop-color:#C95BEC"/>
		<stop  offset="0.1554" style="stop-color:#B951E0"/>
		<stop  offset="0.2095" style="stop-color:#9E41CA"/>
		<stop  offset="0.2677" style="stop-color:#7929AD"/>
		<stop  offset="0.2799" style="stop-color:#7024A6"/>
		<stop  offset="0.3473" style="stop-color:#591D84"/>
		<stop  offset="0.4398" style="stop-color:#3E145C"/>
		<stop  offset="0.5352" style="stop-color:#270D3A"/>
		<stop  offset="0.6325" style="stop-color:#160721"/>
		<stop  offset="0.7328" style="stop-color:#0A030E"/>
		<stop  offset="0.8377" style="stop-color:#020104"/>
		<stop  offset="0.9548" style="stop-color:#000000"/>
	</linearGradient>
	<path class="st3" d="M376.8,702.3h-22v-27.1H330v27.1h-22V634h22v24.2h24.8V634h22V702.3z"/>
	<linearGradient id="SVGID_2_" gradientUnits="userSpaceOnUse" x1="891.9263" y1="660.1175" x2="62.5171" y2="674.1225">
		<stop  offset="7.076340e-02" style="stop-color:#CF5FF1"/>
		<stop  offset="0.1075" style="stop-color:#C95BEC"/>
		<stop  offset="0.1554" style="stop-color:#B951E0"/>
		<stop  offset="0.2095" style="stop-color:#9E41CA"/>
		<stop  offset="0.2677" style="stop-color:#7929AD"/>
		<stop  offset="0.2799" style="stop-color:#7024A6"/>
		<stop  offset="0.3473" style="stop-color:#591D84"/>
		<stop  offset="0.4398" style="stop-color:#3E145C"/>
		<stop  offset="0.5352" style="stop-color:#270D3A"/>
		<stop  offset="0.6325" style="stop-color:#160721"/>
		<stop  offset="0.7328" style="stop-color:#0A030E"/>
		<stop  offset="0.8377" style="stop-color:#020104"/>
		<stop  offset="0.9548" style="stop-color:#000000"/>
	</linearGradient>
	<path class="st4" d="M404,641.5c0.5-1.2,1.1-2.4,1.9-3.4c0.7-1,1.7-1.9,2.8-2.6c1.2-0.7,2.6-1.3,4.3-1.7c1.7-0.4,3.9-0.6,6.6-0.6
		c1.6,0,3.2,0.1,4.7,0.2c1.5,0.2,3,0.5,4.3,1.1c1.3,0.6,2.6,1.4,3.7,2.5c1.1,1.1,2.1,2.6,2.9,4.5l25.3,60.8h-23.2l-5.4-14h-24.6
		l-5.4,14h-23.2L404,641.5z M412.6,672.6h14l-6.1-17.3c-0.1-0.3-0.3-0.6-0.4-0.9c-0.2-0.4-0.3-0.5-0.4-0.5c-0.1,0-0.3,0.2-0.4,0.5
		c-0.2,0.4-0.3,0.7-0.4,0.9L412.6,672.6z"/>
	<linearGradient id="SVGID_3_" gradientUnits="userSpaceOnUse" x1="891.9558" y1="661.8624" x2="62.5466" y2="675.8674">
		<stop  offset="7.076340e-02" style="stop-color:#CF5FF1"/>
		<stop  offset="0.1075" style="stop-color:#C95BEC"/>
		<stop  offset="0.1554" style="stop-color:#B951E0"/>
		<stop  offset="0.2095" style="stop-color:#9E41CA"/>
		<stop  offset="0.2677" style="stop-color:#7929AD"/>
		<stop  offset="0.2799" style="stop-color:#7024A6"/>
		<stop  offset="0.3473" style="stop-color:#591D84"/>
		<stop  offset="0.4398" style="stop-color:#3E145C"/>
		<stop  offset="0.5352" style="stop-color:#270D3A"/>
		<stop  offset="0.6325" style="stop-color:#160721"/>
		<stop  offset="0.7328" style="stop-color:#0A030E"/>
		<stop  offset="0.8377" style="stop-color:#020104"/>
		<stop  offset="0.9548" style="stop-color:#000000"/>
	</linearGradient>
	<path class="st5" d="M501,640.6c0.5-1.8,1.3-3.1,2.3-4.1c1-1,2.1-1.7,3.3-2.2c1.2-0.5,2.4-0.8,3.7-0.9c1.2-0.1,2.3-0.2,3.3-0.2
		s2.1,0.1,3.3,0.2c1.2,0.1,2.5,0.4,3.7,0.9c1.2,0.5,2.3,1.2,3.3,2.2c1,1,1.8,2.3,2.3,4.1l10.2,34.9c0.1,0.3,0.2,0.6,0.4,1
		c0.2,0.4,0.4,0.6,0.6,0.6c0.1,0,0.3-0.1,0.5-0.3c0.2-0.2,0.5-0.8,0.7-1.7l11.3-41.2h22.4l-16.7,54.9c-0.9,2.9-1.9,5.3-2.9,7.1
		c-1,1.8-2.2,3.3-3.5,4.3c-1.3,1-2.8,1.8-4.5,2.1c-1.7,0.4-3.6,0.6-5.9,0.6c-2.6,0-4.8-0.3-6.5-0.8s-3.2-1.3-4.4-2.3
		c-1.2-1-2.2-2.2-2.9-3.7c-0.7-1.5-1.4-3.1-1.9-4.9l-8.7-29.7c-0.1-0.3-0.3-0.6-0.4-1.1c-0.1-0.5-0.3-0.7-0.6-0.7
		c-0.3,0-0.5,0.2-0.6,0.7c-0.1,0.5-0.3,0.8-0.4,1.1l-8.7,29.7c-0.5,1.8-1.2,3.5-1.9,4.9c-0.7,1.5-1.7,2.7-2.9,3.7
		c-1.2,1-2.7,1.8-4.4,2.3c-1.8,0.6-3.9,0.8-6.5,0.8c-2.2,0-4.2-0.2-5.9-0.6c-1.7-0.4-3.2-1.1-4.5-2.1c-1.3-1-2.5-2.5-3.6-4.3
		c-1-1.8-2-4.2-2.8-7.1L454.6,634h22.4l11.3,41.2c0.3,0.9,0.5,1.5,0.7,1.7c0.2,0.2,0.4,0.3,0.5,0.3c0.2,0,0.4-0.2,0.6-0.6
		c0.2-0.4,0.4-0.8,0.4-1L501,640.6z"/>
	<linearGradient id="SVGID_4_" gradientUnits="userSpaceOnUse" x1="891.9799" y1="663.2893" x2="62.5707" y2="677.2943">
		<stop  offset="7.076340e-02" style="stop-color:#CF5FF1"/>
		<stop  offset="0.1075" style="stop-color:#C95BEC"/>
		<stop  offset="0.1554" style="stop-color:#B951E0"/>
		<stop  offset="0.2095" style="stop-color:#9E41CA"/>
		<stop  offset="0.2677" style="stop-color:#7929AD"/>
		<stop  offset="0.2799" style="stop-color:#7024A6"/>
		<stop  offset="0.3473" style="stop-color:#591D84"/>
		<stop  offset="0.4398" style="stop-color:#3E145C"/>
		<stop  offset="0.5352" style="stop-color:#270D3A"/>
		<stop  offset="0.6325" style="stop-color:#160721"/>
		<stop  offset="0.7328" style="stop-color:#0A030E"/>
		<stop  offset="0.8377" style="stop-color:#020104"/>
		<stop  offset="0.9548" style="stop-color:#000000"/>
	</linearGradient>
	<path class="st6" d="M591.9,641.5c0.5-1.2,1.1-2.4,1.9-3.4c0.7-1,1.7-1.9,2.8-2.6c1.2-0.7,2.6-1.3,4.3-1.7c1.7-0.4,3.9-0.6,6.6-0.6
		c1.6,0,3.2,0.1,4.7,0.2c1.5,0.2,3,0.5,4.3,1.1c1.3,0.6,2.6,1.4,3.7,2.5c1.1,1.1,2.1,2.6,2.9,4.5l25.3,60.8h-23.2l-5.4-14h-24.6
		l-5.4,14h-23.2L591.9,641.5z M600.5,672.6h14l-6.1-17.3c-0.1-0.3-0.3-0.6-0.4-0.9c-0.2-0.4-0.3-0.5-0.4-0.5c-0.1,0-0.3,0.2-0.4,0.5
		c-0.2,0.4-0.3,0.7-0.4,0.9L600.5,672.6z"/>
	<linearGradient id="SVGID_5_" gradientUnits="userSpaceOnUse" x1="892.0015" y1="664.5706" x2="62.5923" y2="678.5756">
		<stop  offset="7.076340e-02" style="stop-color:#CF5FF1"/>
		<stop  offset="0.1075" style="stop-color:#C95BEC"/>
		<stop  offset="0.1554" style="stop-color:#B951E0"/>
		<stop  offset="0.2095" style="stop-color:#9E41CA"/>
		<stop  offset="0.2677" style="stop-color:#7929AD"/>
		<stop  offset="0.2799" style="stop-color:#7024A6"/>
		<stop  offset="0.3473" style="stop-color:#591D84"/>
		<stop  offset="0.4398" style="stop-color:#3E145C"/>
		<stop  offset="0.5352" style="stop-color:#270D3A"/>
		<stop  offset="0.6325" style="stop-color:#160721"/>
		<stop  offset="0.7328" style="stop-color:#0A030E"/>
		<stop  offset="0.8377" style="stop-color:#020104"/>
		<stop  offset="0.9548" style="stop-color:#000000"/>
	</linearGradient>
	<path class="st7" d="M667.8,641.5c0.5-1.2,1.1-2.4,1.9-3.4c0.7-1,1.7-1.9,2.8-2.6c1.2-0.7,2.6-1.3,4.3-1.7c1.7-0.4,3.9-0.6,6.6-0.6
		c1.6,0,3.2,0.1,4.7,0.2c1.5,0.2,3,0.5,4.3,1.1c1.3,0.6,2.6,1.4,3.7,2.5c1.1,1.1,2.1,2.6,2.9,4.5l25.3,60.8h-23.2l-5.4-14h-24.6
		l-5.4,14h-23.2L667.8,641.5z M676.4,672.6h14l-6.1-17.3c-0.1-0.3-0.3-0.6-0.4-0.9c-0.2-0.4-0.3-0.5-0.4-0.5c-0.1,0-0.3,0.2-0.4,0.5
		c-0.2,0.4-0.3,0.7-0.4,0.9L676.4,672.6z"/>
	<linearGradient id="SVGID_6_" gradientUnits="userSpaceOnUse" x1="892.0253" y1="665.9788" x2="62.6161" y2="679.9838">
		<stop  offset="7.076340e-02" style="stop-color:#CF5FF1"/>
		<stop  offset="0.1075" style="stop-color:#C95BEC"/>
		<stop  offset="0.1554" style="stop-color:#B951E0"/>
		<stop  offset="0.2095" style="stop-color:#9E41CA"/>
		<stop  offset="0.2677" style="stop-color:#7929AD"/>
		<stop  offset="0.2799" style="stop-color:#7024A6"/>
		<stop  offset="0.3473" style="stop-color:#591D84"/>
		<stop  offset="0.4398" style="stop-color:#3E145C"/>
		<stop  offset="0.5352" style="stop-color:#270D3A"/>
		<stop  offset="0.6325" style="stop-color:#160721"/>
		<stop  offset="0.7328" style="stop-color:#0A030E"/>
		<stop  offset="0.8377" style="stop-color:#020104"/>
		<stop  offset="0.9548" style="stop-color:#000000"/>
	</linearGradient>
	<path class="st8" d="M726.2,634h22v68.3h-22V634z M775.1,702.3l-20.7-26.4c-2-2.5-3-5.4-3-8.6c0-1.3,0.2-2.6,0.6-4
		c0.4-1.4,0.9-2.6,1.6-3.5l18.3-25.8H798l-23.7,28.2c-0.5,0.6-1,1.3-1.4,2.2c-0.4,0.9-0.6,1.8-0.6,2.7c0,0.7,0.2,1.6,0.5,2.7
		c0.3,1.1,1.1,2.3,2.3,3.6l26.5,28.9H775.1z"/>
</g>
<g>
	<path d="M361.2,741v-2.4c0-0.4,0.2-0.6,0.6-0.6h5.2c0.4,0,0.6,0.2,0.6,0.6v18.1c0,1.1,0.2,1.9,0.6,2.3c0.4,0.4,1.1,0.6,2,0.6h2.1
		c1.5,0,2.2,0.9,2.2,2.8c0,1.1-0.2,1.9-0.5,2.2c-0.4,0.4-0.9,0.5-1.7,0.5h-4.5c-1.8,0-3.3-0.3-4.3-1c-1-0.6-1.7-1.8-2-3.4
		c-0.8,0.7-1.7,1.2-2.8,1.5c-1.1,0.3-2.2,0.5-3.4,0.5c-1.5,0-2.8-0.2-4.1-0.6c-1.3-0.4-2.4-1-3.4-1.9c-1-0.9-1.7-2-2.3-3.3
		c-0.6-1.3-0.8-2.9-0.8-4.8c0-2.2,0.3-4,0.9-5.4c0.6-1.5,1.4-2.6,2.5-3.5c1-0.9,2.2-1.5,3.5-1.9c1.3-0.4,2.7-0.6,4.1-0.6H361.2z
		 M350.5,734.2c-0.4,0-0.6-0.2-0.6-0.6v-4.9c0-0.4,0.2-0.6,0.6-0.6h4.7c0.4,0,0.6,0.2,0.6,0.6v4.9c0,0.4-0.2,0.6-0.6,0.6H350.5z
		 M355.9,757.4c1.8,0,3.1-0.5,4-1.5c0.9-1,1.3-2.5,1.3-4.5v-4.7h-5c-1.6,0-2.9,0.4-3.9,1.2c-1,0.8-1.5,2.3-1.5,4.5
		c0,1.7,0.4,3,1.3,3.8C353.1,757,354.4,757.4,355.9,757.4z M357.8,734.2c-0.4,0-0.6-0.2-0.6-0.6v-4.9c0-0.4,0.2-0.6,0.6-0.6h4.7
		c0.4,0,0.6,0.2,0.6,0.6v4.9c0,0.4-0.2,0.6-0.6,0.6H357.8z"/>
	<path d="M385.1,762.4c-0.5,1.1-1.3,1.8-2.4,2.3c-1.1,0.4-2.5,0.6-4.3,0.6h-5.2c-0.7,0-1.3-0.2-1.7-0.5c-0.4-0.4-0.6-1.1-0.6-2.1
		c0-1.1,0.2-1.9,0.5-2.3c0.4-0.4,0.9-0.7,1.7-0.7h3.6c0.7,0,1.2-0.1,1.5-0.3c0.4-0.2,0.6-0.5,0.8-0.9c0.2-0.4,0.3-1,0.3-1.7
		c0-0.7,0.1-1.5,0.1-2.5v-11.6c0-0.2,0.1-0.4,0.3-0.4c0.2-0.1,0.4-0.1,0.6-0.1h4.8c0.4,0,0.6,0.2,0.6,0.6v13.6c0,1.1,0.4,2,1.3,2.6
		c0.8,0.6,2,0.9,3.4,0.9h1c0.7,0,1.3,0.2,1.7,0.6c0.4,0.4,0.6,1.1,0.6,2.1c0,1.1-0.2,1.8-0.5,2.3c-0.4,0.4-0.9,0.6-1.7,0.6
		c-1.5,0-2.7-0.2-3.8-0.5C386.6,764.4,385.7,763.6,385.1,762.4z M376.4,776c-0.4,0-0.6-0.2-0.6-0.6v-4.9c0-0.4,0.2-0.6,0.6-0.6h4.7
		c0.4,0,0.6,0.2,0.6,0.6v4.9c0,0.4-0.2,0.6-0.6,0.6H376.4z M383.7,776c-0.4,0-0.6-0.2-0.6-0.6v-4.9c0-0.4,0.2-0.6,0.6-0.6h4.7
		c0.4,0,0.6,0.2,0.6,0.6v4.9c0,0.4-0.2,0.6-0.6,0.6H383.7z"/>
	<path d="M391.8,765.3c-0.7,0-1.3-0.1-1.7-0.4c-0.4-0.3-0.6-0.8-0.6-1.6c0-0.9,0.2-1.8,0.5-2.5c0.4-0.7,0.9-1.1,1.7-1.1h2.7
		c0.9,0,1.6-0.2,2-0.6c0.4-0.4,0.6-1.2,0.6-2.3v-14.1c0-0.4,0.2-0.6,0.6-0.6h5.2c0.4,0,0.6,0.2,0.6,0.6v15.6c0,2.4-0.5,4.2-1.5,5.4
		c-1,1.1-2.7,1.7-5,1.7H391.8z M397.7,736.4c-0.4,0-0.6-0.2-0.6-0.6V731c0-0.4,0.2-0.6,0.6-0.6h5.4c0.4,0,0.6,0.2,0.6,0.6v4.9
		c0,0.4-0.2,0.6-0.6,0.6H397.7z"/>
	<path d="M416.3,764.7c0,0.4-0.2,0.6-0.6,0.6h-5.2c-0.4,0-0.6-0.2-0.6-0.6v-37c0-0.4,0.2-0.6,0.6-0.6h5.2c0.4,0,0.6,0.2,0.6,0.6
		V764.7z"/>
	<path d="M444.6,755.7c0,1.9-0.2,3.4-0.5,4.6c-0.3,1.2-0.8,2.2-1.5,2.9c-0.7,0.7-1.5,1.3-2.6,1.6c-1,0.3-2.3,0.4-3.7,0.4h-13
		c-0.4,0-0.6-0.2-0.6-0.6v-4.5c0-0.4,0.2-0.6,0.6-0.6h10.4c1,0,1.8-0.1,2.4-0.2c0.6-0.1,1.1-0.4,1.4-0.8c0.3-0.4,0.5-0.8,0.6-1.4
		c0.1-0.6,0.1-1.2,0.1-2.1v-3.7c0-3.3-1.9-4.9-5.7-4.9h-6.7c-0.4,0-0.6-0.2-0.6-0.6v-4.5c0-0.4,0.2-0.6,0.6-0.6h9
		c3,0,5.4,0.8,7.1,2.4c1.8,1.6,2.6,4.2,2.6,7.6V755.7z"/>
	<path d="M455.4,776.6c-0.4,0-0.6-0.2-0.6-0.6v-4.5c0-0.4,0.2-0.6,0.6-0.6h6.6c0.9,0,1.6-0.1,2.2-0.3c0.6-0.2,1.2-0.5,1.6-0.9
		c0.4-0.4,0.7-1,1-1.7c0.2-0.7,0.3-1.7,0.3-2.9h-5.7c-1.8,0-3.3-0.2-4.7-0.6c-1.4-0.4-2.5-1-3.4-2c-0.9-0.9-1.7-2.1-2.2-3.6
		c-0.5-1.5-0.8-3.3-0.8-5.4c0-2.3,0.3-4.2,1-5.9s1.5-3,2.5-4c1-1,2.3-1.8,3.7-2.2c1.4-0.5,2.8-0.7,4.4-0.7c1.7,0,3.2,0.2,4.6,0.7
		s2.6,1.2,3.6,2.1c1,1,1.8,2.2,2.4,3.8c0.6,1.6,0.8,3.5,0.8,5.8v6.3h3.9c0.7,0,1.3,0.2,1.7,0.6c0.4,0.4,0.6,1.1,0.6,2.1
		c0,1.2-0.2,2-0.5,2.4c-0.4,0.4-0.9,0.5-1.7,0.5h-3.9v1.2c0,3.5-0.9,6.1-2.7,7.7c-1.8,1.6-4.3,2.4-7.7,2.4H455.4z M461.9,746.6
		c-1.7,0-3,0.6-4,1.9c-1,1.3-1.4,3-1.4,5.1c0,2.3,0.5,3.9,1.4,4.8c1,0.9,2.3,1.3,4.1,1.3h5v-6.4c0-2.2-0.4-3.9-1.2-5
		C465,747.2,463.7,746.6,461.9,746.6z"/>
	<path d="M490.6,756.2c0,1.2,0.3,2.1,0.9,2.6s1.6,0.8,3,0.8c0.9,0,1.7-0.1,2.2-0.2c0.5-0.1,1-0.4,1.2-0.8c0.3-0.4,0.4-1,0.5-1.7
		c0.1-0.7,0.1-1.7,0.1-2.9v-7.2c0-0.4,0.2-0.6,0.6-0.6h5.2c0.4,0,0.6,0.2,0.6,0.6v9.4c0,1.2,0.4,2,1.1,2.6c0.7,0.5,1.7,0.8,2.8,0.8
		c0.9,0,1.6-0.1,2.1-0.2c0.5-0.1,0.9-0.4,1.2-0.8c0.3-0.4,0.5-0.9,0.5-1.7c0.1-0.7,0.1-1.7,0.1-2.8v-11.6c0-0.4,0.2-0.6,0.6-0.6h5.2
		c0.4,0,0.6,0.2,0.6,0.6v13.6c0,1.1,0.4,2,1.3,2.6c0.8,0.6,2,0.9,3.4,0.9h1c0.7,0,1.3,0.2,1.7,0.6c0.4,0.4,0.6,1.1,0.6,2.1
		c0,1.1-0.2,1.8-0.6,2.3c-0.4,0.4-0.9,0.6-1.7,0.6c-1.5,0-2.7-0.2-3.8-0.5c-1.1-0.4-1.9-1.1-2.5-2.4c-0.5,1.1-1.3,1.8-2.3,2.2
		c-1,0.4-2.3,0.7-4,0.7h-2.4c-1.3,0-2.4-0.3-3.3-0.8c-0.9-0.5-1.6-1.2-2.1-2.2c-0.5,1.1-1.3,1.9-2.3,2.3c-1,0.4-2.3,0.7-4,0.7h-2.5
		c-2.7,0-4.5-1-5.4-3c-0.5,1.1-1.3,1.9-2.3,2.3c-1,0.5-2.3,0.7-4,0.7h-6.1c-0.4,0-0.8,0-1.1-0.1c-0.3,0-0.6-0.1-0.8-0.3
		c-0.2-0.2-0.4-0.4-0.5-0.8c-0.1-0.3-0.2-0.8-0.2-1.4c0-1.1,0.2-1.9,0.5-2.4c0.4-0.5,0.9-0.7,1.7-0.7h4.5c0.7,0,1.2-0.1,1.5-0.3
		c0.4-0.2,0.6-0.5,0.8-1c0.2-0.4,0.3-1,0.3-1.7c0-0.7,0-1.5,0-2.6v-7.2c0-0.4,0.2-0.6,0.6-0.6h5.2c0.4,0,0.6,0.2,0.6,0.6V756.2z"/>
	<path d="M524.5,765.3c-0.7,0-1.3-0.2-1.7-0.5c-0.4-0.4-0.6-1.1-0.6-2.2c0-1.1,0.2-1.8,0.5-2.2c0.4-0.4,0.9-0.7,1.7-0.7h2.7
		c0.9,0,1.6-0.2,2-0.6c0.4-0.4,0.6-1.2,0.6-2.3v-29c0-0.4,0.2-0.6,0.6-0.6h5.2c0.4,0,0.6,0.2,0.6,0.6v30.5c0,2.4-0.5,4.2-1.5,5.4
		c-1,1.1-2.7,1.7-5,1.7H524.5z"/>
	<path d="M549.9,764.7c0,0.4-0.2,0.6-0.6,0.6h-5.2c-0.4,0-0.6-0.2-0.6-0.6v-37c0-0.4,0.2-0.6,0.6-0.6h5.2c0.4,0,0.6,0.2,0.6,0.6
		V764.7z"/>
	<path d="M604,759c0.4-0.4,0.6-1.2,0.6-2.3v-14.1c0-0.4,0.2-0.6,0.6-0.6h5.2c0.4,0,0.6,0.2,0.6,0.6v15.6c0,2.4-0.5,4.2-1.5,5.4
		c-1,1.1-2.7,1.7-5.2,1.7h-28c-2.4,0-4-0.6-5-1.7c-1-1.2-1.5-2.9-1.5-5.4v-12.1c0-0.4,0.2-0.6,0.6-0.6h5.2c0.4,0,0.6,0.2,0.6,0.6
		v10.6c0,1.1,0.2,1.9,0.6,2.3c0.4,0.4,1.1,0.6,2,0.6h23.2C602.9,759.7,603.6,759.5,604,759z M584.6,739.7c-0.4,0-0.6-0.2-0.6-0.6
		v-4.9c0-0.4,0.2-0.6,0.6-0.6h4.7c0.4,0,0.6,0.2,0.6,0.6v4.9c0,0.4-0.2,0.6-0.6,0.6H584.6z M591.8,739.7c-0.4,0-0.6-0.2-0.6-0.6
		v-4.9c0-0.4,0.2-0.6,0.6-0.6h4.7c0.4,0,0.6,0.2,0.6,0.6v4.9c0,0.4-0.2,0.6-0.6,0.6H591.8z"/>
	<path d="M617.5,727.7c0-0.4,0.2-0.6,0.6-0.6h5.2c0.4,0,0.6,0.2,0.6,0.6v29c0,1.1,0.2,1.9,0.6,2.3c0.4,0.4,1.1,0.6,2,0.6h2
		c0.7,0,1.3,0.2,1.7,0.7c0.4,0.4,0.6,1.2,0.6,2.2c0,1.2-0.2,1.9-0.5,2.2c-0.4,0.3-0.9,0.5-1.7,0.5H624c-2.3,0-4-0.6-5-1.7
		c-1-1.1-1.5-2.9-1.5-5.4V727.7z"/>
	<path d="M631.4,745.5c1.2-1.3,2.5-2.4,4.1-3.3c1.6-0.9,3.6-1.3,5.9-1.3c2.5,0,4.6,0.4,6.3,1.1s3,1.8,4,3.1c1,1.3,1.7,2.8,2.2,4.5
		c0.4,1.7,0.6,3.5,0.6,5.4c0,0.3,0,0.5,0,0.7c0,0.2,0,0.4,0,0.7c0.1,1,0.6,1.8,1.4,2.3c0.8,0.6,1.9,0.8,3.3,0.8h1
		c0.7,0,1.3,0.2,1.7,0.6c0.4,0.4,0.6,1.1,0.6,2.1c0,1.1-0.2,1.8-0.5,2.3c-0.4,0.4-0.9,0.6-1.7,0.6c-1.6,0-2.9-0.2-4.1-0.6
		c-1.2-0.4-2.1-1.3-2.7-2.7c-0.7,1.3-1.7,2.2-2.9,2.6c-1.3,0.5-2.8,0.7-4.6,0.7h-17.3c-0.7,0-1.3-0.2-1.7-0.7
		c-0.4-0.4-0.6-1.2-0.6-2.2c0-1.1,0.2-1.8,0.5-2.2c0.4-0.4,0.9-0.6,1.7-0.6h14.9c1,0,1.8-0.1,2.4-0.2c0.6-0.1,1.1-0.4,1.4-0.8
		c0.3-0.4,0.6-0.9,0.7-1.5c0.1-0.6,0.2-1.4,0.2-2.3c0-1.2-0.1-2.3-0.3-3.3c-0.2-1-0.6-1.9-1.1-2.6c-0.5-0.7-1.2-1.3-2-1.8
		c-0.8-0.4-1.9-0.6-3.2-0.6c-1.2,0-2.4,0.2-3.4,0.7c-1,0.5-1.9,1.1-2.7,2c-0.3,0.3-0.5,0.3-0.8,0.1l-2.9-3
		C631.2,746,631.2,745.8,631.4,745.5z M639.5,775.9c-0.4,0-0.6-0.2-0.6-0.6v-4.9c0-0.4,0.2-0.6,0.6-0.6h5.4c0.4,0,0.6,0.2,0.6,0.6
		v4.9c0,0.4-0.2,0.6-0.6,0.6H639.5z"/>
	<path d="M672.2,762.4c-0.5,1.1-1.3,1.8-2.4,2.3c-1.1,0.4-2.5,0.6-4.3,0.6h-5.2c-0.7,0-1.3-0.2-1.7-0.5c-0.4-0.4-0.6-1.1-0.6-2.1
		c0-1.1,0.2-1.9,0.5-2.3c0.4-0.4,0.9-0.7,1.7-0.7h3.6c0.7,0,1.2-0.1,1.5-0.3c0.4-0.2,0.6-0.5,0.8-0.9c0.2-0.4,0.3-1,0.3-1.7
		c0-0.7,0.1-1.5,0.1-2.5v-11.6c0-0.2,0.1-0.4,0.3-0.4c0.2-0.1,0.4-0.1,0.6-0.1h4.8c0.4,0,0.6,0.2,0.6,0.6v13.6c0,1.1,0.4,2,1.3,2.6
		c0.8,0.6,2,0.9,3.4,0.9h1c0.7,0,1.3,0.2,1.7,0.6c0.4,0.4,0.6,1.1,0.6,2.1c0,1.1-0.2,1.8-0.5,2.3c-0.4,0.4-0.9,0.6-1.7,0.6
		c-1.5,0-2.7-0.2-3.8-0.5C673.7,764.4,672.9,763.6,672.2,762.4z M663.9,736.4c-0.4,0-0.6-0.2-0.6-0.6V731c0-0.4,0.2-0.6,0.6-0.6h4.7
		c0.4,0,0.6,0.2,0.6,0.6v4.9c0,0.4-0.2,0.6-0.6,0.6H663.9z M671.2,736.4c-0.4,0-0.6-0.2-0.6-0.6V731c0-0.4,0.2-0.6,0.6-0.6h4.7
		c0.4,0,0.6,0.2,0.6,0.6v4.9c0,0.4-0.2,0.6-0.6,0.6H671.2z"/>
	<path d="M690.7,756.2c0,1.1,0.4,2,1.3,2.6c0.8,0.6,2,0.9,3.4,0.9h1c0.7,0,1.3,0.2,1.7,0.6c0.4,0.4,0.6,1.1,0.6,2.1
		c0,1.1-0.2,1.8-0.5,2.3c-0.4,0.4-0.9,0.6-1.7,0.6c-1.5,0-2.7-0.2-3.8-0.5c-1.1-0.4-1.9-1.1-2.6-2.4c-0.5,1.1-1.3,1.8-2.3,2.3
		c-1,0.4-2.4,0.6-4.2,0.6H679c-0.7,0-1.3-0.1-1.7-0.4c-0.4-0.2-0.6-0.8-0.6-1.6c0-0.9,0.2-1.8,0.5-2.5c0.4-0.7,0.9-1.1,1.8-1.1h2.7
		c0.6,0,1.1-0.1,1.5-0.3c0.4-0.2,0.6-0.5,0.8-0.9c0.2-0.4,0.3-0.9,0.3-1.6c0-0.7,0.1-1.5,0.1-2.5v-11.8c0-0.4,0.2-0.6,0.6-0.6h5.2
		c0.4,0,0.6,0.2,0.6,0.6V756.2z M684.9,736.4c-0.4,0-0.6-0.2-0.6-0.6V731c0-0.4,0.2-0.6,0.6-0.6h5.4c0.4,0,0.6,0.2,0.6,0.6v4.9
		c0,0.4-0.2,0.6-0.6,0.6H684.9z"/>
	<path d="M701.7,752.9c0-2.2,0.3-4,0.9-5.5c0.6-1.5,1.4-2.7,2.4-3.7c1-0.9,2.2-1.6,3.6-2.1c1.4-0.4,2.9-0.6,4.6-0.6
		c1.6,0,3.2,0.2,4.6,0.7c1.4,0.4,2.7,1.2,3.7,2.1c1,1,1.8,2.3,2.4,3.9c0.6,1.6,0.9,3.5,0.9,5.8c0,0.3,0,0.7,0,1c0,0.3,0,0.6-0.1,0.9
		c0,1.6,0.4,2.7,1.1,3.3c0.7,0.7,1.5,1,2.4,1h1.6c0.7,0,1.3,0.2,1.7,0.6c0.4,0.4,0.6,1.1,0.6,2.1c0,1.1-0.2,1.8-0.5,2.3
		c-0.4,0.4-0.9,0.6-1.7,0.6c-0.6,0-1.3,0-2-0.1c-0.7,0-1.4-0.2-2.1-0.4c-0.7-0.2-1.3-0.5-2-0.9c-0.6-0.4-1.2-1-1.7-1.7
		c-1,1.2-2.3,2.1-3.8,2.6c-1.5,0.5-3.2,0.8-5.1,0.8c-1.9,0-3.6-0.3-5-0.8c-1.5-0.5-2.7-1.3-3.8-2.5c-0.4,0.6-0.8,1.1-1.4,1.5
		c-0.5,0.4-1.1,0.7-1.6,0.9c-0.6,0.2-1.1,0.4-1.7,0.4c-0.6,0.1-1.2,0.1-1.7,0.1h-2c-0.7,0-1.3-0.2-1.7-0.7c-0.4-0.4-0.6-1.2-0.6-2.2
		c0-1.1,0.2-1.8,0.5-2.2c0.4-0.4,0.9-0.6,1.7-0.6h2.2c0.9,0,1.7-0.4,2.4-1.1c0.7-0.7,1.1-2.1,1.1-4c0-0.3-0.1-0.6-0.1-0.8
		C701.7,753.5,701.7,753.2,701.7,752.9z M713.2,746.6c-1.8,0-3.1,0.6-4,1.7c-0.9,1.2-1.3,2.8-1.3,5c0,2.4,0.4,4.1,1.3,5.1
		c0.9,1,2.2,1.6,4,1.6c1.8,0,3.2-0.5,4-1.6c0.9-1.1,1.3-2.8,1.3-5.1C718.5,748.9,716.8,746.6,713.2,746.6z"/>
	<path d="M732.5,759.7c0.9,0,1.6-0.2,2-0.6c0.4-0.4,0.6-1.2,0.6-2.3v-29c0-0.4,0.2-0.6,0.6-0.6h5.2c0.4,0,0.6,0.2,0.6,0.6v28.5
		c0,1.1,0.4,2,1.3,2.6c0.8,0.6,2,0.9,3.4,0.9h1c0.7,0,1.3,0.2,1.7,0.6c0.4,0.4,0.6,1.1,0.6,2.1c0,1.1-0.2,1.8-0.5,2.3
		c-0.4,0.4-0.9,0.6-1.7,0.6c-1.5,0-2.7-0.2-3.8-0.5c-1.1-0.4-1.9-1.1-2.6-2.4c-0.5,1.1-1.3,1.8-2.3,2.2c-1,0.4-2.3,0.7-4,0.7h-4.7
		c-0.7,0-1.3-0.2-1.7-0.5c-0.4-0.4-0.6-1.1-0.6-2.4c0-1,0.2-1.7,0.5-2.1c0.4-0.4,0.9-0.6,1.7-0.6H732.5z"/>
	<path d="M747.1,765.3c-0.7,0-1.3-0.2-1.7-0.5c-0.4-0.4-0.6-1.1-0.6-2.2c0-1.1,0.2-1.8,0.5-2.2c0.4-0.4,0.9-0.7,1.7-0.7h2.7
		c0.9,0,1.6-0.2,2-0.6c0.4-0.4,0.6-1.2,0.6-2.3v-29c0-0.4,0.2-0.6,0.6-0.6h5.2c0.4,0,0.6,0.2,0.6,0.6v30.5c0,2.4-0.5,4.2-1.5,5.4
		c-1,1.1-2.7,1.7-5,1.7H747.1z"/>
</g>
<line class="st9" x1="307.9" y1="748.4" x2="336.7" y2="748.4"/>
<line class="st9" x1="772.8" y1="748.4" x2="801.7" y2="748.4"/>
</svg>
